<svg data-v-fde0c5aa="" xmlns="http://www.w3.org/2000/svg" viewBox="0 0 300 300" class="iconLeftSlogan"><!----><defs data-v-fde0c5aa=""><!----></defs><rect data-v-fde0c5aa="" fill="#F9EFED" x="0" y="0" width="300px" height="300px" class="logo-background-square"></rect><defs data-v-fde0c5aa=""><!----></defs><g data-v-fde0c5aa="" id="4ed11e5e-3a9c-4289-b12b-516d4a544874" fill="#391117" transform="matrix(2.3690191747282063,0,0,2.3690191747282063,111.58094763012333,115.51241714224301)"><path d="M3.96 7.77L4.06 7.64L4.28 7.17L4.28 7.17Q4.35 6.97 4.35 6.86L4.35 6.86L4.35 6.86Q4.34 6.75 4.34 6.68L4.34 6.68L4.34 6.68Q4.34 6.61 4.33 6.50L4.33 6.50L4.33 6.50Q4.31 6.40 4.24 6.29L4.24 6.29L4.24 6.29Q4.16 6.19 4.08 6.15L4.08 6.15L4.08 6.15Q4.00 6.12 3.79 6.03L3.79 6.03L3.49 6.02L3.49 6.02Q3.07 5.94 2.77 6.09L2.77 6.09L2.77 6.09Q2.77 6.40 2.62 7.38L2.62 7.38L2.53 8.34L2.46 8.85L2.46 8.85Q2.56 8.85 2.97 8.69L2.97 8.69L3.16 8.53L3.16 8.53Q3.22 8.51 3.51 8.22L3.51 8.22L3.51 8.22Q3.58 8.19 3.67 8.08L3.67 8.08L3.81 7.91L3.81 7.91Q3.85 7.92 3.96 7.77L3.96 7.77ZM2.44 11.38L2.44 11.38L2.46 11.72L2.46 11.72Q2.52 11.84 2.46 12.08L2.46 12.08L2.46 12.08Q2.41 12.32 2.45 12.45L2.45 12.45L2.45 12.45Q2.45 12.68 2.46 12.73L2.46 12.73L2.46 12.73Q2.59 12.73 2.85 12.61L2.85 12.61L2.85 12.61Q3.11 12.50 3.18 12.49L3.18 12.49L3.18 12.49Q3.25 12.47 3.36 12.38L3.36 12.38L3.36 12.38Q3.71 12.19 4.09 11.96L4.09 11.96L4.41 11.66L4.41 11.66Q4.82 11.17 4.97 10.95L4.97 10.95L5.05 10.70L5.05 10.70Q5.24 10.30 4.70 9.95L4.70 9.95L4.70 9.95Q4.59 9.79 4.24 9.73L4.24 9.73L4.23 9.73L4.23 9.73Q3.74 9.59 3.65 9.62L3.65 9.62L3.04 9.76L3.04 9.76Q2.87 9.84 2.74 9.84L2.74 9.84L2.74 9.84Q2.60 9.84 2.45 9.72L2.45 9.72L2.46 10.11L2.46 10.11Q2.37 10.37 2.41 10.63L2.41 10.63L2.41 10.63Q2.46 10.88 2.44 11.38ZM3.05 13.87L3.05 13.87L2.93 13.87L2.93 13.87Q2.79 13.90 2.38 13.83L2.38 13.83L2.38 13.83Q1.67 13.72 1.23 13.38L1.23 13.38L1.23 13.38Q1.11 13.27 0.95 13.08L0.95 13.08L0.95 13.08Q0.78 12.89 0.78 12.82L0.78 12.82L0.78 12.82Q0.78 12.75 0.79 12.64L0.79 12.64L0.79 12.64Q0.80 12.53 0.77 12.42L0.77 12.42L0.77 12.31L0.77 12.31Q0.73 12.22 0.78 12.00L0.78 12.00L0.78 12.00Q0.84 11.79 0.81 11.65L0.81 11.65L0.81 11.65Q0.78 11.47 0.77 11.26L0.77 11.26L0.77 11.26Q0.73 11.20 0.81 10.95L0.81 10.95L0.81 10.95Q0.92 9.06 0.92 8.88L0.92 8.88L0.99 8.46L0.99 8.46Q0.92 8.04 1.02 7.73L1.02 7.73L1.02 7.42L1.02 7.42Q1.01 7.22 1.13 6.29L1.13 6.29L1.13 6.29Q1.08 6.12 0.76 5.85L0.76 5.85L0.76 5.85Q0.69 5.78 0.62 5.63L0.62 5.63L0.62 5.63Q0.55 5.49 0.67 5.17L0.67 5.17L0.67 5.17Q0.76 5.05 1.16 4.80L1.16 4.80L1.16 4.80Q1.19 4.72 1.92 4.48L1.92 4.48L2.18 4.37L2.18 4.37Q2.38 4.30 2.97 4.31L2.97 4.31L2.97 4.31Q3.29 4.35 3.49 4.44L3.49 4.44L3.49 4.44Q4.20 4.79 4.80 5.24L4.80 5.24L4.80 5.24Q4.98 5.32 5.05 5.46L5.05 5.46L5.05 5.46Q5.31 5.63 5.52 6.00L5.52 6.00L5.52 6.00Q5.74 6.37 5.77 6.47L5.77 6.47L5.77 6.47Q5.84 6.92 5.63 7.55L5.63 7.55L5.63 7.55Q5.53 7.87 4.70 8.89L4.70 8.89L4.70 8.89Q4.84 8.93 5.18 9.13L5.18 9.13L5.18 9.13Q5.22 9.18 5.47 9.32L5.47 9.32L5.47 9.32Q5.50 9.37 5.55 9.42L5.55 9.42L5.55 9.42Q5.60 9.48 5.63 9.52L5.63 9.52L5.74 9.59L5.88 9.80L6.09 9.98L6.09 9.98Q6.23 10.12 6.31 10.29L6.31 10.29L6.31 10.29Q6.52 10.49 6.54 10.61L6.54 10.61L6.57 10.88L6.57 10.88Q6.55 11.03 6.15 11.89L6.15 11.89L6.15 11.89Q5.99 12.19 5.75 12.36L5.75 12.36L5.54 12.61L5.54 12.61Q5.46 12.73 5.23 12.89L5.23 12.89L5.23 12.89Q5.00 13.06 4.84 13.22L4.84 13.22L4.84 13.22Q4.77 13.24 4.63 13.34L4.63 13.34L4.63 13.34Q4.48 13.44 4.19 13.58L4.19 13.58L4.19 13.58Q3.91 13.72 3.81 13.75L3.81 13.75L3.81 13.75Q3.53 13.83 3.05 13.87ZM9.94 9.31L9.94 9.31L9.94 9.31Q9.84 8.75 9.39 8.79L9.39 8.79L9.39 8.79Q9.14 8.81 8.96 9.13L8.96 9.13L8.96 9.13Q8.71 9.62 8.74 10.39L8.74 10.39L8.74 10.39Q8.78 11.17 8.86 11.51L8.86 11.51L8.86 11.51Q8.93 11.86 9.13 12.11L9.13 12.11L9.13 12.11Q9.24 12.31 9.46 12.29L9.46 12.29L9.46 12.29Q9.86 12.29 10.04 11.63L10.04 11.63L10.15 11.30L10.15 11.30Q10.22 11.23 10.18 11.16L10.18 11.16L10.18 11.16Q10.32 10.81 10.33 10.33L10.33 10.33L10.33 10.33Q10.19 10.23 10.16 10.15L10.16 10.15L10.16 10.15Q10.08 9.91 10.08 9.83L10.08 9.83L10.08 9.83Q9.98 9.76 9.97 9.56L9.97 9.56L9.97 9.56Q9.95 9.37 9.94 9.31ZM7.38 10.63L7.38 10.63L7.43 9.91L7.43 9.91Q7.53 8.95 8.02 8.26L8.02 8.26L8.02 8.26Q8.50 7.69 9.37 7.67L9.37 7.67L9.45 7.67L9.45 7.67Q10.26 7.67 10.63 8.02L10.63 8.02L10.63 8.02Q11.02 8.33 11.21 8.69L11.21 8.69L11.21 8.69Q11.40 9.06 11.45 9.23L11.45 9.23L11.45 9.23Q11.51 9.39 11.52 9.72L11.52 9.72L11.52 9.72Q11.55 10.32 11.28 10.40L11.28 10.40L11.28 10.40Q11.48 11.73 11.05 12.52L11.05 12.52L11.05 12.52Q10.91 12.84 10.64 13.22L10.64 13.22L10.64 13.22Q10.44 13.47 9.94 13.50L9.94 13.50L9.94 13.50Q9.44 13.50 9.07 13.44L9.07 13.44L9.07 13.44Q8.69 13.38 8.25 13.08L8.25 13.08L8.25 13.08Q7.80 12.78 7.62 12.10L7.62 12.10L7.62 12.10Q7.42 11.44 7.38 10.63ZM15.30 9.31L15.30 9.31L15.30 9.31Q15.20 8.75 14.76 8.79L14.76 8.79L14.76 8.79Q14.50 8.81 14.32 9.13L14.32 9.13L14.32 9.13Q14.07 9.62 14.11 10.39L14.11 10.39L14.11 10.39Q14.14 11.17 14.22 11.51L14.22 11.51L14.22 11.51Q14.29 11.86 14.49 12.11L14.49 12.11L14.49 12.11Q14.60 12.31 14.83 12.29L14.83 12.29L14.83 12.29Q15.22 12.29 15.40 11.63L15.40 11.63L15.51 11.30L15.51 11.30Q15.58 11.23 15.54 11.16L15.54 11.16L15.54 11.16Q15.68 10.81 15.69 10.33L15.69 10.33L15.69 10.33Q15.55 10.23 15.53 10.15L15.53 10.15L15.53 10.15Q15.44 9.91 15.44 9.83L15.44 9.83L15.44 9.83Q15.34 9.76 15.33 9.56L15.33 9.56L15.33 9.56Q15.32 9.37 15.30 9.31ZM12.74 10.63L12.74 10.63L12.80 9.91L12.80 9.91Q12.89 8.95 13.38 8.26L13.38 8.26L13.38 8.26Q13.86 7.69 14.73 7.67L14.73 7.67L14.81 7.67L14.81 7.67Q15.62 7.67 15.99 8.02L15.99 8.02L15.99 8.02Q16.38 8.33 16.57 8.69L16.57 8.69L16.57 8.69Q16.76 9.06 16.81 9.23L16.81 9.23L16.81 9.23Q16.87 9.39 16.88 9.72L16.88 9.72L16.88 9.72Q16.91 10.32 16.65 10.40L16.65 10.40L16.65 10.40Q16.84 11.73 16.41 12.52L16.41 12.52L16.41 12.52Q16.27 12.84 16.00 13.22L16.00 13.22L16.00 13.22Q15.81 13.47 15.30 13.50L15.30 13.50L15.30 13.50Q14.80 13.50 14.43 13.44L14.43 13.44L14.43 13.44Q14.06 13.38 13.61 13.08L13.61 13.08L13.61 13.08Q13.16 12.78 12.98 12.10L12.98 12.10L12.98 12.10Q12.78 11.44 12.74 10.63ZM18.37 8.25L18.37 8.25L18.33 8.06L18.33 8.06Q18.33 8.05 18.33 7.94L18.33 7.94L18.33 7.94Q18.34 7.84 18.31 7.69L18.31 7.69L18.31 7.69Q18.31 7.34 18.30 7.17L18.30 7.17L18.30 7.17Q18.26 7.11 18.26 6.62L18.26 6.62L18.26 6.62Q18.21 6.13 18.27 5.68L18.27 5.68L18.27 5.68Q18.27 5.54 18.42 4.94L18.42 4.94L18.42 4.94Q18.58 4.63 18.58 4.59L18.58 4.59L18.58 4.59Q18.65 4.45 18.86 4.26L18.86 4.26L19.14 4.12L19.14 4.12Q19.35 4.03 19.87 4.16L19.87 4.16L20.17 4.23L20.17 4.23Q20.17 4.47 20.12 4.83L20.12 4.83L20.12 4.83Q20.10 5.22 20.01 5.94L20.01 5.94L20.01 5.94Q19.81 7.36 19.81 9.03L19.81 9.03L19.87 9.25L19.87 9.25Q20.27 8.95 20.60 8.62L20.60 8.62L20.60 8.62Q20.93 8.30 21.03 8.25L21.03 8.25L21.03 8.25Q21.04 8.23 21.35 7.98L21.35 7.98L21.35 7.98Q21.71 7.69 21.76 7.62L21.76 7.62L21.76 7.62Q22.02 7.27 22.40 7.08L22.40 7.08L22.40 7.08Q22.65 7.08 22.85 7.21L22.85 7.21L22.85 7.21Q23.07 7.41 23.07 7.55L23.07 7.55L23.07 7.55Q23.07 7.69 23.04 7.76L23.04 7.76L23.04 7.76Q23.00 7.84 22.92 7.95L22.92 7.95L22.92 7.95Q22.83 8.06 22.76 8.20L22.76 8.20L22.76 8.20Q22.58 8.53 22.01 9.10L22.01 9.10L22.01 9.10Q21.62 9.52 21.41 9.70L21.41 9.70L21.41 9.70Q21.28 9.84 20.79 10.16L20.79 10.16L20.79 10.16Q20.80 10.19 20.85 10.27L20.85 10.27L20.85 10.27Q20.90 10.35 20.96 10.46L20.96 10.46L20.96 10.46Q21.55 11.10 21.97 11.33L21.97 11.33L21.97 11.33Q22.13 11.49 22.32 11.54L22.32 11.54L22.32 11.54Q22.32 11.55 22.47 11.65L22.47 11.65L22.55 11.68L22.55 11.68Q22.86 11.83 22.96 11.83L22.96 11.83L22.96 11.83Q23.41 11.91 23.41 12.13L23.41 12.13L23.41 12.13Q23.41 12.35 23.18 12.46L23.18 12.46L23.18 12.46Q23.18 12.49 22.76 12.74L22.76 12.74L22.76 12.74Q22.71 12.73 22.53 12.82L22.53 12.82L22.53 12.82Q22.01 12.99 21.34 12.68L21.34 12.68L21.34 12.68Q20.96 12.52 20.71 12.15L20.71 12.15L20.38 11.90L20.38 11.90Q20.37 11.86 19.91 11.37L19.91 11.37L19.96 11.80L20.03 12.22L20.03 12.22Q20.03 12.67 20.09 12.94L20.09 12.94L20.09 12.94Q20.15 13.20 19.98 13.31L19.98 13.31L19.98 13.31Q19.82 13.43 19.41 13.44L19.41 13.44L19.41 13.44Q19.00 13.45 18.79 13.24L18.79 13.24L18.79 13.24Q18.73 13.20 18.68 12.89L18.68 12.89L18.68 12.89Q18.63 12.57 18.59 12.45L18.59 12.45L18.59 12.45Q18.31 11.59 18.37 10.98L18.37 10.98L18.35 10.56L18.35 10.56Q18.37 10.50 18.37 10.23L18.37 10.23L18.37 10.23Q18.51 9.46 18.37 8.25ZM27.47 6.96L27.47 7.08L27.47 7.08Q27.48 7.32 27.58 8.19L27.58 8.19L27.58 8.19Q27.73 9.73 27.76 10.07L27.76 10.07L27.90 10.72L28.01 11.38L28.01 11.38Q28.32 10.77 28.31 10.67L28.31 10.67L28.31 10.67Q28.31 10.57 28.55 9.94L28.55 9.94L28.55 9.94Q28.88 9.34 28.98 8.88L28.98 8.88L28.98 8.88Q28.99 8.79 29.13 8.47L29.13 8.47L29.13 8.47Q29.09 8.43 29.20 8.20L29.20 8.20L29.20 8.20Q29.32 7.97 29.38 7.70L29.38 7.70L29.38 7.70Q29.44 7.43 29.45 7.42L29.45 7.42L29.45 7.42Q29.46 7.41 29.47 7.39L29.47 7.39L29.47 7.39Q29.51 7.35 29.58 7.14L29.58 7.14L29.58 7.14Q29.62 6.94 29.62 6.83L29.62 6.83L29.62 6.40L29.62 6.40Q29.62 6.36 29.69 6.10L29.69 6.10L29.68 5.78L29.68 5.78Q29.68 5.45 30.00 4.91L30.00 4.91L30.28 4.68L30.28 4.68Q30.28 4.55 30.50 4.52L30.50 4.52L30.50 4.52Q30.72 4.49 30.88 4.55L30.88 4.55L30.88 4.55Q31.05 4.61 31.11 4.61L31.11 4.61L31.11 4.61Q31.16 4.66 31.51 4.75L31.51 4.75L31.51 4.75Q31.68 4.80 31.73 4.96L31.73 4.96L31.73 4.96Q31.78 5.11 31.78 5.38L31.78 5.38L31.68 6.47L31.68 6.47Q31.68 6.57 31.60 7.83L31.60 7.83L31.61 8.27L31.61 8.27Q31.60 8.30 31.60 8.75L31.60 8.75L31.60 9.48L31.60 9.48Q31.60 9.69 31.60 9.74L31.60 9.74L31.64 10.28L31.64 10.28Q31.58 10.28 31.81 11.52L31.81 11.52L31.81 11.52Q31.81 11.72 31.95 12.37L31.95 12.37L31.95 12.37Q32.10 13.02 32.03 13.45L32.03 13.45L32.03 13.45Q32.03 13.68 31.63 13.86L31.63 13.86L31.63 13.86Q31.32 13.80 31.25 13.68L31.25 13.68L31.25 13.68Q31.12 13.61 31.09 13.57L31.09 13.57L30.98 13.43L30.98 13.43Q30.76 13.24 30.62 12.99L30.62 12.99L30.62 12.99Q30.52 12.89 30.48 12.71L30.48 12.71L30.48 12.71Q30.34 12.52 30.31 12.22L30.31 12.22L30.31 12.22Q30.28 11.93 30.20 11.81L30.20 11.81L30.20 11.81Q30.13 11.69 30.09 11.58L30.09 11.58L30.09 11.58Q29.93 11.42 29.89 11.02L29.89 11.02L29.89 11.02Q29.85 10.63 29.81 10.33L29.81 10.33L29.81 10.33Q29.81 10.16 29.82 10.08L29.82 10.08L29.82 10.08Q29.78 9.97 29.77 9.91L29.77 9.91L29.77 9.91Q29.76 9.86 29.75 9.79L29.75 9.79L29.69 10.05L29.69 10.05Q29.65 10.12 29.51 10.60L29.51 10.60L29.22 11.51L28.97 12.39L28.97 12.39Q28.90 12.43 28.80 12.73L28.80 12.73L28.80 12.73Q28.67 13.05 28.65 13.08L28.65 13.08L28.65 13.08Q28.63 13.10 28.60 13.16L28.60 13.16L28.60 13.16Q28.49 13.38 28.35 13.52L28.35 13.52L28.35 13.52Q27.97 13.87 27.57 13.73L27.57 13.73L27.57 13.73Q27.17 13.58 26.99 13.16L26.99 13.16L26.99 13.16Q26.89 12.92 26.84 12.85L26.84 12.85L26.84 12.85Q26.82 12.74 26.68 12.46L26.68 12.46L26.68 12.46Q26.59 12.19 26.53 11.79L26.53 11.79L26.53 11.79Q26.46 11.66 26.43 11.35L26.43 11.35L26.43 11.35Q26.36 11.23 26.33 10.99L26.33 10.99L26.33 10.99Q26.31 10.75 26.25 10.53L26.25 10.53L26.25 10.53Q26.18 10.29 26.15 9.95L26.15 9.95L26.15 9.95Q26.12 9.70 25.94 9.03L25.94 9.03L25.94 9.03Q25.90 8.99 25.83 8.75L25.83 8.75L25.83 8.75Q25.80 8.97 25.80 8.99L25.80 8.99L25.80 8.99Q25.80 9.02 25.69 9.69L25.69 9.69L25.69 9.69Q25.72 9.72 25.68 10.11L25.68 10.11L25.68 10.11Q25.59 10.37 25.58 10.67L25.58 10.67L25.58 10.67Q25.47 11.42 25.48 11.80L25.48 11.80L25.48 11.80Q25.52 11.93 25.49 12.10L25.49 12.10L25.49 12.10Q25.45 12.28 25.43 12.45L25.43 12.45L25.43 12.45Q25.41 12.63 25.37 12.77L25.37 12.77L25.37 12.87L25.37 12.87Q25.33 13.30 25.35 13.36L25.35 13.36L25.35 13.36Q25.35 13.51 25.23 13.73L25.23 13.73L25.23 13.73Q25.12 13.96 24.86 13.90L24.86 13.90L24.86 13.90Q24.42 13.79 24.35 13.73L24.35 13.73L24.35 13.73Q24.19 13.48 24.19 13.29L24.19 13.29L24.19 12.61L24.22 12.36L24.22 12.36Q24.21 12.32 24.23 12.04L24.23 12.04L24.23 12.04Q24.22 12.03 24.22 11.81L24.22 11.81L24.22 11.81Q24.22 11.59 24.18 11.48L24.18 11.48L24.18 11.34L24.18 11.34Q24.15 10.86 24.17 10.79L24.17 10.79L24.17 10.79Q24.19 10.71 24.16 10.44L24.16 10.44L24.16 10.44Q24.22 10.44 24.23 10.23L24.23 10.23L24.23 10.23Q24.25 10.01 24.28 9.76L24.28 9.76L24.37 9.72L24.37 9.72Q24.35 9.70 24.36 9.32L24.36 9.32L24.36 9.32Q24.37 9.23 24.43 8.82L24.43 8.82L24.43 8.82Q24.49 8.41 24.48 8.27L24.48 8.27L24.48 8.27Q24.47 8.12 24.63 7.80L24.63 7.80L24.63 7.80Q24.92 6.92 24.94 6.68L24.94 6.68L24.94 6.68Q24.96 6.44 25.02 6.26L25.02 6.26L25.02 6.26Q25.07 5.80 25.28 5.49L25.28 5.49L25.28 5.49Q25.38 5.18 25.65 5.12L25.65 5.12L25.82 5.00L25.83 5.00L25.83 5.00Q26.10 4.80 26.78 4.94L26.78 4.94L26.78 4.94Q27.37 5.21 27.43 5.60L27.43 5.60L27.43 5.60Q27.37 5.80 27.47 6.96L27.47 6.96ZM34.97 8.69L34.94 9.03L34.94 9.03Q34.94 9.25 34.92 9.42L34.92 9.42L34.92 9.42Q34.90 9.59 34.90 9.63L34.90 9.63L34.90 9.63Q34.90 10.07 34.87 10.27L34.87 10.27L34.87 10.27Q34.83 10.47 34.83 10.60L34.83 10.60L34.83 11.23L34.83 11.23Q34.83 12.04 34.89 12.20L34.89 12.20L34.89 12.20Q34.94 12.36 35.08 12.42L35.08 12.42L35.08 12.42Q35.24 12.46 35.32 12.40L35.32 12.40L35.32 12.40Q35.41 12.33 35.48 12.20L35.48 12.20L35.48 12.20Q35.56 12.07 35.61 11.89L35.61 11.89L35.61 11.89Q35.66 11.72 35.76 11.51L35.76 11.51L35.76 11.51Q35.85 11.31 35.88 11.22L35.88 11.22L35.88 11.22Q35.90 11.13 35.99 10.99L35.99 10.99L35.99 10.99Q36.19 10.23 36.22 9.24L36.22 9.24L36.22 8.79L36.22 8.79Q36.25 8.23 36.43 7.85L36.43 7.85L36.43 7.85Q36.53 7.63 37.00 7.49L37.00 7.49L37.21 7.48L37.21 7.48Q37.49 7.48 37.58 7.56L37.58 7.56L37.58 7.56Q37.66 7.97 37.59 8.71L37.59 8.71L37.59 9.67L37.59 9.67Q37.62 10.37 37.62 10.64L37.62 10.64L37.62 10.64Q37.60 10.74 37.63 12.29L37.63 12.29L37.63 12.29Q37.62 12.31 37.63 12.66L37.63 12.66L37.63 12.66Q37.65 12.88 37.60 13.64L37.60 13.64L37.60 13.64Q37.55 14.39 37.55 14.55L37.55 14.55L37.55 14.55Q37.39 15.40 37.21 15.72L37.21 15.72L37.21 15.72Q37.02 16.04 36.69 16.28L36.69 16.28L36.69 16.28Q36.47 16.51 35.90 16.59L35.90 16.59L35.90 16.59Q35.85 16.58 35.67 16.58L35.67 16.58L35.67 16.58Q34.83 16.49 34.58 16.24L34.58 16.24L34.58 16.24Q33.84 15.86 33.72 15.69L33.72 15.69L33.72 15.69Q33.60 15.51 33.57 15.36L33.57 15.36L33.57 15.36Q33.54 15.20 33.66 14.84L33.66 14.84L33.66 14.84Q33.87 14.57 34.20 14.74L34.20 14.74L34.20 14.74Q34.34 14.81 34.71 15.02L34.71 15.02L35.17 15.25L35.17 15.25Q35.27 15.33 35.36 15.26L35.36 15.26L35.36 15.26Q35.50 15.18 35.53 15.18L35.53 15.18L35.53 15.18Q35.77 14.98 35.99 14.56L35.99 14.56L35.99 14.56Q35.99 14.42 36.13 14.14L36.13 14.14L36.13 14.14Q36.13 13.86 36.30 13.31L36.30 13.31L36.30 13.16L36.30 13.16Q36.30 12.95 36.33 12.80L36.33 12.80L36.33 12.80Q36.36 12.66 36.36 12.57L36.36 12.57L36.36 12.57Q36.25 12.78 36.18 12.96L36.18 12.96L36.18 12.96Q36.11 13.15 36.01 13.27L36.01 13.27L36.01 13.27Q35.99 13.36 35.71 13.44L35.71 13.44L35.20 13.45L35.20 13.45Q35.20 13.44 35.11 13.44L35.11 13.44L34.90 13.43L34.90 13.43Q34.16 13.43 33.96 13.23L33.96 13.23L33.96 13.23Q33.87 13.10 33.73 12.99L33.73 12.99L33.73 12.99Q33.60 12.84 33.57 12.60L33.57 12.60L33.57 12.60Q33.53 12.56 33.52 12.36L33.52 12.36L33.52 12.21L33.49 12.04L33.49 12.04Q33.50 12.01 33.46 11.84L33.46 11.84L33.46 11.84Q33.43 11.68 33.43 11.30L33.43 11.30L33.43 11.13L33.43 11.13Q33.43 9.88 33.46 9.83L33.46 9.83L33.46 9.83Q33.50 9.74 33.50 9.67L33.50 9.67L33.50 9.67Q33.47 9.60 33.52 9.52L33.52 9.52L33.54 9.32L33.68 8.89L33.68 8.89Q33.68 8.83 33.77 8.54L33.77 8.54L33.77 8.54Q33.85 8.46 33.87 8.34L33.87 8.34L33.87 8.34Q33.92 8.08 33.93 7.98L33.93 7.98L33.93 7.98Q33.94 7.88 34.05 7.71L34.05 7.71L34.05 7.71Q34.22 7.59 34.55 7.62L34.55 7.62L34.55 7.62Q34.87 7.66 35.11 7.91L35.11 7.91L34.96 8.53L34.96 8.53Q34.97 8.62 34.97 8.69L34.97 8.69ZM42.14 13.82L42.14 13.82L42.14 13.82Q42.04 13.92 41.54 13.92L41.54 13.92L41.54 13.92Q41.19 13.99 40.71 13.80L40.71 13.80L40.42 13.71L39.98 13.50L39.98 13.50Q39.93 13.50 39.91 13.50L39.91 13.50L39.91 13.50Q39.90 13.51 39.84 13.47L39.84 13.47L39.84 13.47Q39.76 13.40 39.65 13.36L39.65 13.36L39.65 13.36Q39.37 13.16 39.26 13.01L39.26 13.01L39.26 13.01Q38.81 12.29 38.81 11.82L38.81 11.82L38.81 11.82Q38.81 11.76 38.95 11.61L38.95 11.61L38.95 11.61Q39.23 11.27 39.65 11.27L39.65 11.27L39.65 11.27Q39.82 11.28 39.91 11.38L39.91 11.38L40.38 11.98L40.38 11.98Q40.49 12.10 40.63 12.21L40.63 12.21L40.81 12.40L41.09 12.64L41.09 12.64Q41.15 12.67 41.20 12.67L41.20 12.67L41.20 12.67Q41.26 12.70 41.51 12.74L41.51 12.74L41.51 12.74Q41.79 12.67 41.99 12.59L41.99 12.59L41.99 12.59Q42.11 12.46 42.21 12.39L42.21 12.39L42.41 12.17L42.41 12.17Q42.43 12.14 42.50 11.94L42.50 11.94L42.50 11.94Q42.50 11.76 42.51 11.70L42.51 11.70L42.51 11.70Q42.52 11.63 42.46 11.35L42.46 11.35L42.46 11.35Q42.45 11.31 42.27 11.13L42.27 11.13L42.27 11.13Q42.18 10.96 42.03 10.77L42.03 10.77L42.03 10.77Q41.94 10.68 41.22 10.32L41.22 10.32L40.95 10.16L40.70 9.94L40.70 9.94Q40.52 9.88 40.18 9.56L40.18 9.56L40.18 9.56Q40.04 9.46 39.97 9.41L39.97 9.41L39.97 9.41Q39.89 9.38 39.51 8.93L39.51 8.93L39.51 8.93Q39.51 8.90 39.27 8.40L39.27 8.40L39.14 7.85L39.20 7.49L39.20 7.49Q39.12 7.13 39.14 6.94L39.14 6.94L39.14 6.94Q39.20 6.86 39.28 6.61L39.28 6.61L39.28 6.61Q39.24 6.40 39.66 5.78L39.66 5.78L39.66 5.78Q39.66 5.70 40.28 5.11L40.28 5.11L40.75 4.86L40.98 4.76L40.98 4.76Q41.10 4.75 41.32 4.72L41.32 4.72L41.32 4.72Q41.54 4.69 41.97 4.72L41.97 4.72L41.97 4.72Q42.41 4.75 42.52 4.83L42.52 4.83L42.52 4.83Q42.62 4.87 43.08 5.21L43.08 5.21L43.08 5.21Q43.69 5.75 43.75 6.19L43.75 6.19L43.75 6.19Q43.99 6.90 43.78 7.71L43.78 7.71L43.78 7.71Q43.78 7.77 43.39 7.94L43.39 7.94L43.04 7.92L43.04 7.92Q42.59 7.87 42.18 7.46L42.18 7.46L42.18 7.46Q42.07 7.39 42.01 7.07L42.01 7.07L42.01 7.07Q42 6.73 41.87 6.66L41.87 6.66L41.87 6.66Q41.86 6.65 41.76 6.41L41.76 6.41L41.76 6.41Q41.52 6.10 41.45 6.10L41.45 6.10L41.45 6.10Q41.37 6.10 41.27 6.15L41.27 6.15L41.27 6.15Q40.77 6.55 40.74 7.06L40.74 7.06L40.74 7.06Q40.64 7.46 40.99 8.05L40.99 8.05L40.99 8.05Q41.15 8.27 41.19 8.27L41.19 8.27L41.19 8.27Q41.27 8.41 41.51 8.62L41.51 8.62L41.71 8.83L42.29 9.27L42.53 9.51L42.80 9.67L42.80 9.67Q43.02 9.77 43.23 9.94L43.23 9.94L43.23 9.94Q43.51 10.15 43.92 10.72L43.92 10.72L43.92 10.72Q44.00 10.85 44.14 11.48L44.14 11.48L44.14 12.03L44.07 12.35L44.07 12.35Q44.00 12.42 43.92 12.63L43.92 12.63L43.92 12.63Q43.92 12.64 43.76 13.01L43.76 13.01L43.76 13.01Q43.72 13.08 43.43 13.30L43.43 13.30L43.43 13.30Q43.01 13.64 42.49 13.80L42.49 13.80L42.49 13.80Q42.38 13.83 42.14 13.82ZM46.89 7.99L46.89 7.99L46.73 9.90L46.82 9.70L46.82 9.70Q46.87 9.58 47.22 9.11L47.22 9.11L47.22 9.11Q47.22 9.07 47.66 8.37L47.66 8.37L47.89 8.09L48.02 7.90L48.02 7.90Q48.29 7.69 48.47 7.69L48.47 7.69L48.47 7.69Q48.85 7.63 49.28 7.91L49.28 7.91L49.28 7.91Q49.38 7.92 49.53 8.12L49.53 8.12L49.53 8.12Q49.77 8.30 49.74 8.64L49.74 8.64L49.74 8.64Q49.74 8.67 49.73 8.72L49.73 8.72L49.73 8.72Q49.46 10.91 49.45 11.78L49.45 11.78L49.45 11.78Q49.43 12.66 49.59 13.24L49.59 13.24L49.59 13.24Q49.70 13.73 49.22 13.93L49.22 13.93L49.22 13.93Q49.10 14.01 48.83 13.96L48.83 13.96L48.83 13.96Q48.59 13.96 48.48 13.89L48.48 13.89L48.48 13.89Q48.36 13.83 48.23 13.61L48.23 13.61L48.16 13.33L48.16 13.33Q48.10 13.22 48.10 13.02L48.10 13.02L48.05 12.61L48.05 12.61Q48.06 12.59 48.06 12.25L48.06 12.25L48.08 11.89L48.08 11.89Q48.03 11.69 48.09 11.12L48.09 11.12L48.12 10.51L48.12 10.16L48.12 10.16Q48.13 10.12 48.03 9.97L48.03 9.97L48.03 9.97Q47.67 10.25 47.22 11.84L47.22 11.84L46.86 12.96L46.86 12.96Q46.61 13.86 46.31 13.93L46.31 13.93L46.16 13.96L46.16 13.96Q45.96 13.96 45.63 13.85L45.63 13.85L45.63 13.85Q45.36 13.55 45.36 13.26L45.36 13.26L45.36 13.26Q45.39 13.20 45.37 13.13L45.37 13.13L45.37 13.13Q45.33 12.95 45.40 12.63L45.40 12.63L45.40 12.63Q45.39 12.59 45.39 12.52L45.39 12.52L45.40 12.31L45.40 12.31Q45.37 12.24 45.35 11.91L45.35 11.91L45.35 11.91Q45.32 11.58 45.35 11.41L45.35 11.41L45.35 11.41Q45.32 11.35 45.43 11.03L45.43 11.03L45.43 11.03Q45.32 10.86 45.30 10.65L45.30 10.65L45.30 10.65Q45.25 10.08 45.27 9.79L45.27 9.79L45.27 9.79Q45.29 9.51 45.29 9.25L45.29 9.25L45.29 9.25Q45.26 9.00 45.28 8.65L45.28 8.65L45.37 7.52L45.47 6.71L45.47 6.71Q45.47 6.61 45.41 6.40L45.41 6.40L45.41 6.40Q45.35 6.20 45.37 5.92L45.37 5.92L45.37 5.92Q45.40 5.64 45.44 5.56L45.44 5.56L45.44 5.56Q45.47 5.49 45.54 5.15L45.54 5.15L45.54 5.15Q45.54 4.87 45.60 4.73L45.60 4.73L45.68 4.48L45.68 4.48Q45.70 4.38 46.05 4.16L46.05 4.16L46.20 4.16L46.20 4.16Q46.75 4.20 47.00 4.34L47.00 4.34L47.00 4.34Q47.11 4.41 47.05 4.83L47.05 4.83L47.05 4.83Q47.03 5.42 47.01 5.56L47.01 5.56L47.01 5.56Q47.00 5.70 46.94 6.78L46.94 6.78L46.94 6.78Q46.89 7.85 46.89 7.99ZM53.70 9.31L53.70 9.31L53.70 9.31Q53.61 8.75 53.16 8.79L53.16 8.79L53.16 8.79Q52.91 8.81 52.72 9.13L52.72 9.13L52.72 9.13Q52.47 9.62 52.51 10.39L52.51 10.39L52.51 10.39Q52.54 11.17 52.62 11.51L52.62 11.51L52.62 11.51Q52.70 11.86 52.89 12.11L52.89 12.11L52.89 12.11Q53.00 12.31 53.23 12.29L53.23 12.29L53.23 12.29Q53.62 12.29 53.80 11.63L53.80 11.63L53.91 11.30L53.91 11.30Q53.98 11.23 53.94 11.16L53.94 11.16L53.94 11.16Q54.08 10.81 54.10 10.33L54.10 10.33L54.10 10.33Q53.96 10.23 53.93 10.15L53.93 10.15L53.93 10.15Q53.84 9.91 53.84 9.83L53.84 9.83L53.84 9.83Q53.75 9.76 53.73 9.56L53.73 9.56L53.73 9.56Q53.72 9.37 53.70 9.31ZM51.14 10.63L51.14 10.63L51.20 9.91L51.20 9.91Q51.30 8.95 51.79 8.26L51.79 8.26L51.79 8.26Q52.26 7.69 53.13 7.67L53.13 7.67L53.21 7.67L53.21 7.67Q54.03 7.67 54.39 8.02L54.39 8.02L54.39 8.02Q54.78 8.33 54.97 8.69L54.97 8.69L54.97 8.69Q55.16 9.06 55.22 9.23L55.22 9.23L55.22 9.23Q55.27 9.39 55.29 9.72L55.29 9.72L55.29 9.72Q55.31 10.32 55.05 10.40L55.05 10.40L55.05 10.40Q55.24 11.73 54.81 12.52L54.81 12.52L54.81 12.52Q54.67 12.84 54.40 13.22L54.40 13.22L54.40 13.22Q54.21 13.47 53.70 13.50L53.70 13.50L53.70 13.50Q53.20 13.50 52.83 13.44L52.83 13.44L52.83 13.44Q52.46 13.38 52.01 13.08L52.01 13.08L52.01 13.08Q51.56 12.78 51.38 12.10L51.38 12.10L51.38 12.10Q51.18 11.44 51.14 10.63ZM58.16 9.41L58.16 9.46L58.14 10.05L58.14 10.50L58.17 11.03L58.17 11.03Q58.17 11.62 58.31 12.32L58.31 12.32L58.38 12.45L58.38 12.45Q58.38 12.29 58.43 12.18L58.43 12.18L58.43 12.18Q58.48 12.07 58.48 11.91L58.48 11.91L58.67 11.19L58.67 11.19Q58.67 11.14 58.74 11.00L58.74 11.00L58.74 11.00Q58.80 10.86 58.92 10.48L58.92 10.48L58.92 10.48Q59.04 10.09 59.07 9.81L59.07 9.81L59.07 9.81Q59.09 9.52 59.12 9.41L59.12 9.41L59.12 9.41Q59.15 9.30 59.11 9.10L59.11 9.10L59.18 8.53L59.18 8.53Q59.18 8.33 59.23 8.25L59.23 8.25L59.23 8.25Q59.82 8.16 60.00 8.15L60.00 8.15L60.00 8.15Q60.00 8.23 60.10 8.37L60.10 8.37L60.10 8.37Q60.10 8.43 60.20 8.62L60.20 8.62L60.26 8.88L60.26 8.88Q60.34 9.07 60.47 10.60L60.47 10.60L60.47 10.60Q60.48 11.09 60.73 11.96L60.73 11.96L60.73 11.96Q60.80 11.84 60.79 11.69L60.79 11.69L60.79 11.69Q60.87 11.61 60.87 11.24L60.87 11.24L61.01 10.86L61.28 9.42L61.33 8.81L61.45 8.37L61.45 8.37Q61.47 8.19 61.57 8.11L61.57 8.11L61.57 8.11Q61.66 8.04 61.87 8.05L61.87 8.05L62.22 8.05L62.22 8.05Q62.31 8.12 62.48 8.12L62.48 8.12L62.65 8.16L62.65 8.16Q62.64 8.33 62.62 8.54L62.62 8.54L62.62 8.54Q62.61 8.71 62.51 9.31L62.51 9.31L62.51 9.31Q62.34 11.31 62.26 11.72L62.26 11.72L62.26 11.72Q62.26 11.82 62.22 11.87L62.22 11.87L62.22 11.87Q62.20 12.07 62.02 12.82L62.02 12.82L62.02 12.82Q62.02 12.94 61.73 13.23L61.73 13.23L61.73 13.23Q61.63 13.40 61.43 13.44L61.43 13.44L61.43 13.44Q61.36 13.51 61.17 13.52L61.17 13.52L61.17 13.52Q60.97 13.55 60.76 13.47L60.76 13.47L60.76 13.47Q60.55 13.40 60.52 13.36L60.52 13.36L60.52 13.36Q60.38 13.23 60.17 13.17L60.17 13.17L59.96 13.09L59.96 13.09Q59.79 12.91 59.77 12.88L59.77 12.88L59.77 12.88Q59.71 12.80 59.67 12.47L59.67 12.47L59.67 12.47Q59.64 12.46 59.60 12.10L59.60 12.10L59.60 12.10Q59.43 12.71 59.43 12.78L59.43 12.78L59.43 12.78Q59.36 13.02 59.34 13.05L59.34 13.05L59.34 13.05Q59.32 13.09 59.31 13.15L59.31 13.15L59.31 13.15Q59.30 13.22 59.28 13.27L59.28 13.27L59.28 13.27Q59.28 13.36 59.19 13.45L59.19 13.45L59.19 13.45Q59.09 13.55 58.84 13.61L58.84 13.61L58.84 13.61Q58.59 13.68 58.18 13.62L58.18 13.62L58.02 13.64L58.02 13.64Q57.92 13.64 57.81 13.61L57.81 13.61L57.81 13.61Q57.64 13.50 57.57 13.33L57.57 13.33L57.57 13.33Q57.40 13.09 57.27 12.81L57.27 12.81L57.27 12.81Q57.19 12.73 57.05 12.25L57.05 12.25L57.05 12.25Q56.92 11.96 56.92 11.91L56.92 11.91L56.92 11.79L56.92 11.79Q56.87 11.73 56.80 11.45L56.80 11.45L56.80 11.45Q56.74 11.17 56.77 11.03L56.77 11.03L56.77 11.03Q56.73 10.98 56.73 10.74L56.73 10.74L56.73 10.74Q56.70 10.60 56.70 10.29L56.70 10.29L56.70 10.29Q56.66 9.77 56.60 9.62L56.60 9.62L56.60 9.62Q56.62 9.44 56.49 9.11L56.49 9.11L56.49 9.11Q56.38 8.48 56.42 8.39L56.42 8.39L56.42 8.39Q56.38 8.27 56.49 8.04L56.49 8.04L56.49 8.04Q56.49 7.97 56.84 7.64L56.84 7.64L56.84 7.64Q57.02 7.59 57.13 7.65L57.13 7.65L57.13 7.65Q57.25 7.71 57.39 7.73L57.39 7.73L57.88 7.87L57.88 7.87Q58.28 7.98 58.21 8.81L58.21 8.81L58.16 9.35L58.16 9.35Q58.16 9.37 58.16 9.41L58.16 9.41Z"></path></g><defs data-v-fde0c5aa=""><linearGradient data-v-fde0c5aa="" gradientTransform="rotate(25)" id="3296b9c8-5777-45be-817b-25937d1c533c" x1="0%" y1="0%" x2="100%" y2="0%"><stop data-v-fde0c5aa="" offset="0%" stop-color="#A21F38" stop-opacity="1"></stop><stop data-v-fde0c5aa="" offset="100%" stop-color="#D8806B" stop-opacity="1"></stop></linearGradient></defs><g data-v-fde0c5aa="" id="5c3e6cfe-ed45-4bf4-966d-9abc7ff28319" stroke="none" fill="url(#3296b9c8-5777-45be-817b-25937d1c533c)" transform="matrix(1.1662041116800927,0,0,1.1662041116800927,19.054074357001,98.92025412508161)"><path d="M69.3 32.1c-.9-1.1-.9-1.5-1-2.1 0-.5 0-1-.5-2-.1-.2-.3-.3-.5-.3H64l1.5-8.9c0-.1 0-.3-.1-.4s-.2-.2-.4-.2h-2c-.2 0-.5.2-.5.4l-1.5 9H42.4c-.2 0-.4.1-.5.3-.4.9-.4 1.5-.5 2 0 .6 0 1-1 2.1-.1.1-.2.4-.1.5.1.2.3.3.5.3h1.5l1.8 17.4-23.5-8.8c-.7-.3-1.4.2-1.5.9-.2 2-1 8.6-1.1 11.3 0 .5.3.9.7 1.1l4 1.5h-3.6c-.4 0-.7.2-.9.4-.2.3-.3.6-.2 1 .6 2.5 2.1 8.5 2.9 11 .2.5.6.8 1.1.8h16.3c.5 0 1-.4 1.1-.9l1.5-7.3c0-.1.1-.1.1-.1h1l-.2 1.3c-.1.5.2 1 .7 1.2l3 1.1.8 3.8c.1.5.6.9 1.1.9h16.3c.5 0 .9-.3 1.1-.8.8-2.4 2.3-8.5 2.9-11 .1-.3 0-.7-.2-1-.2-.3-.5-.4-.9-.4H65L67.4 33h1.5c.2 0 .4-.1.5-.3 0-.2 0-.4-.1-.6zm-5.9-12.7h1L63 27.8h-1l1.4-8.4zM19.2 53.9c-.1 0-.1-.1-.1-.1.1-2.6.9-9.2 1.1-11.2 0-.1.1-.1.2-.1l37.1 13.9h-3.7l-6.6-2.5c-.1-.1-.3 0-.4 0-.1.1-.2.2-.2.4l-.3 2.1h-2.5l.2-1.1c.1-.5-.2-1-.7-1.2L40 52.9c-.1 0-.3-.1-.4-.1-.4 0-.7.2-1 .5l-1.9 3h-2.9l3.5-5.5c.1-.1.1-.3.1-.4 0-.1-.2-.3-.3-.3l-14.2-5.3c-.1-.1-.3 0-.4 0-.1.1-.2.2-.2.4s-.6 6.1-.6 7.9c0 .2.1.4.3.5l7.6 2.8h-3.7l-6.7-2.5zm31.7 2.5h-3.7l.2-1.3 3.5 1.3zm-8.2 0h-4.8l1.6-2.5s.1-.1.2-.1l3.2 1.2c.1 0 .1.1.1.1l-.3 1.3zm-10.5 0l-9.7-3.6v-.6-.2-.7-.1c0-.2 0-.5.1-.7v-.2c0-.3 0-.6.1-.9v-.2c0-.3.1-.6.1-.8 0-.3.1-.6.1-.9v-.1c.1-.6.1-1.1.1-1.4l13.1 4.9-3.5 5.5h-.4zm10.6 6.4c-.1 0-.1-.1-.1-.1l.2-1.4h1.6c.1 0 .1 0 .1.1l.5 2.3-2.3-.9zm23.9-5.4v.1c-.6 2.5-2.1 8.5-2.9 10.9 0 .1-.1.1-.1.1H47.4c-.1 0-.1 0-.1-.1l-1.5-7.3c-.1-.5-.6-.9-1.1-.9h-3.4c-.5 0-1 .4-1.1.9l-1.5 7.3c0 .1-.1.1-.1.1H22.1c-.1 0-.1 0-.1-.1-.8-2.5-2.4-9-2.9-10.9v-.1s0-.1.1-.1h47.4c0 .1.1.1.1.1zm-2.7-1h-3.6l-15.1-5.6L43.4 33h23L64 56.4zM42 32c.5-.7.6-1.2.6-1.8 0-.4 0-.7.3-1.3H67.1c.2.6.2.9.3 1.3 0 .6.1 1.1.6 1.8H42z"></path><path d="M23.9 66.9c.1.2.3.3.5.3h11.5c.2 0 .4-.2.5-.4l1.6-7.5c0-.1 0-.3-.1-.4-.1-.1-.2-.2-.4-.2H22.3c-.2 0-.3.1-.4.2s-.1.3-.1.4c0 .2 1.5 5.9 2.1 7.6zm12.9-7.2l-1.4 6.5H24.8c-.5-1.5-1.5-5.1-1.8-6.5h13.8zM49.9 67.2h11.5c.2 0 .4-.1.5-.3.6-1.6 2.1-7.4 2.2-7.6 0-.1 0-.3-.1-.4s-.2-.2-.4-.2H48.3c-.2 0-.3.1-.4.2s-.1.3-.1.4l1.6 7.5c.1.2.3.4.5.4zm13-7.5c-.4 1.4-1.3 5-1.8 6.5H50.3l-1.4-6.5h14z"></path></g><defs data-v-fde0c5aa=""><!----></defs><g data-v-fde0c5aa="" id="5a452487-59d6-4a6e-806e-ed3bf1a2b1f4" fill="#391117" transform="matrix(0.4671476480530201,0,0,0.4671476480530201,112.8111275934888,163.9315376939664)"><path d="M0.38 12.39C0.38 12.63 0.38 12.68 0.57 12.68C0.74 12.68 1.06 12.64 1.64 12.64C2.25 12.64 2.80 12.68 2.95 12.68C3.12 12.68 3.12 12.61 3.12 12.40C3.12 12.24 3.12 12.18 2.95 12.18L1.88 12.18C1.88 12.18 1.86 12.18 1.86 12.17C1.88 11.87 2.65 9.90 3.00 9.02C3.07 8.83 3.08 8.79 3.29 8.79L6.12 8.79C6.26 8.79 6.26 8.81 6.33 9.03C6.59 9.77 7.31 11.89 7.31 12.17C7.31 12.18 7.29 12.18 7.29 12.18L6.52 12.18C6.30 12.18 6.29 12.19 6.29 12.39C6.29 12.63 6.30 12.68 6.47 12.68C6.79 12.68 7.66 12.64 8.08 12.64C8.50 12.64 9.17 12.68 9.38 12.68C9.52 12.68 9.53 12.61 9.53 12.40C9.53 12.24 9.52 12.18 9.38 12.18L8.89 12.18C8.79 12.18 7.77 9.34 7.21 7.78L5.53 3.07C5.52 3.00 5.45 2.94 5.36 2.94C5.24 2.94 5.14 3.16 5.05 3.35C4.90 3.71 4.66 3.84 4.55 4.13L3.07 7.57C2.88 8.01 1.18 12.18 1.05 12.18L0.63 12.18C0.41 12.18 0.38 12.19 0.38 12.39ZM3.28 8.33C3.28 8.30 3.30 8.23 3.35 8.13L4.72 4.77C4.76 4.66 4.79 4.61 4.82 4.61C4.83 4.61 4.84 4.63 4.89 4.77L6.05 8.18C6.08 8.25 6.09 8.29 6.09 8.32C6.09 8.36 6.06 8.37 5.96 8.37L3.46 8.37C3.28 8.37 3.28 8.34 3.28 8.33ZM17.29 12.39C17.29 12.63 17.32 12.68 17.51 12.68C17.84 12.68 18.80 12.64 19.22 12.64C19.64 12.64 24.00 12.68 24.32 12.68C24.58 12.68 24.65 12.66 24.67 12.49C24.72 12.08 24.96 10.72 24.96 10.60C24.96 10.47 24.81 10.44 24.64 10.43C24.54 10.42 24.46 10.46 24.44 10.56L24.28 11.76C24.23 12.05 24.22 12.03 24.00 12.04C23.84 12.05 21.34 12.12 19.91 12.12C19.87 12.12 19.82 11.38 19.82 10.54L19.82 6.66C19.82 5.40 19.84 3.70 19.94 3.70L20.92 3.70C21.15 3.70 21.18 3.63 21.18 3.44C21.18 3.23 21.17 3.19 20.93 3.19C20.61 3.19 19.67 3.23 19.25 3.23C18.83 3.23 17.89 3.19 17.67 3.19C17.44 3.19 17.39 3.22 17.39 3.44C17.39 3.65 17.43 3.70 17.63 3.70L18.45 3.70C18.49 3.70 18.52 4.23 18.52 4.90L18.52 8.13C18.52 10.07 18.49 12.18 18.41 12.18L17.57 12.18C17.35 12.18 17.29 12.21 17.29 12.39ZM32.58 12.39C32.58 12.63 32.61 12.68 32.80 12.68C33.12 12.68 34.09 12.64 34.51 12.64C34.93 12.64 39.28 12.68 39.61 12.68C39.87 12.68 39.94 12.66 39.96 12.49C40.01 12.08 40.25 10.72 40.25 10.60C40.25 10.47 40.10 10.44 39.93 10.43C39.83 10.42 39.75 10.46 39.73 10.56L39.56 11.76C39.52 12.05 39.51 12.03 39.28 12.04C39.13 12.05 36.62 12.12 35.20 12.12C35.15 12.12 35.11 11.38 35.11 10.54L35.11 6.66C35.11 5.40 35.13 3.70 35.22 3.70L36.20 3.70C36.44 3.70 36.47 3.63 36.47 3.44C36.47 3.23 36.46 3.19 36.22 3.19C35.90 3.19 34.96 3.23 34.54 3.23C34.12 3.23 33.18 3.19 32.96 3.19C32.73 3.19 32.68 3.22 32.68 3.44C32.68 3.65 32.72 3.70 32.91 3.70L33.74 3.70C33.78 3.70 33.81 4.23 33.81 4.90L33.81 8.13C33.81 10.07 33.78 12.18 33.70 12.18L32.86 12.18C32.63 12.18 32.58 12.21 32.58 12.39ZM57.60 12.39C57.60 12.63 57.62 12.68 57.82 12.68C58.06 12.68 58.56 12.64 58.98 12.64C59.40 12.64 59.89 12.68 60.21 12.68C60.38 12.68 60.41 12.61 60.41 12.40C60.41 12.24 60.38 12.18 60.21 12.18L59.25 12.18C59.19 12.18 59.18 11.54 59.18 10.79C59.18 8.96 59.22 6.13 59.29 4.28C59.32 3.88 59.35 3.91 59.49 4.27L62.75 12.32C62.85 12.54 62.92 12.74 63.03 12.74C63.13 12.74 63.20 12.63 63.28 12.45C63.62 11.79 63.80 11.75 64.06 11.09L66.65 4.47C66.78 4.16 66.82 4.02 66.84 4.47C66.86 5.66 66.91 8.47 66.91 9.74C66.91 10.99 66.86 12.18 66.81 12.18L66.18 12.18C65.95 12.18 65.88 12.19 65.88 12.39C65.88 12.63 65.91 12.68 66.11 12.68C66.30 12.68 67.00 12.64 67.61 12.64C68.03 12.64 68.78 12.68 69.10 12.68C69.27 12.68 69.30 12.61 69.30 12.40C69.30 12.22 69.24 12.18 69.08 12.18L68.35 12.18C68.24 12.18 68.14 8.44 68.14 6.03L68.14 4.77C68.14 4.17 68.17 3.77 68.21 3.70L68.87 3.70C69.09 3.70 69.13 3.68 69.13 3.49C69.13 3.25 69.12 3.19 68.92 3.19C68.60 3.19 67.91 3.23 67.49 3.23L66.82 3.23C66.60 3.23 66.57 3.29 66.46 3.58L63.71 10.72C63.63 10.95 63.60 11.02 63.49 10.74L60.55 3.40C60.48 3.22 60.42 3.19 60.28 3.19C60.20 3.19 59.71 3.23 59.40 3.23C58.90 3.23 58.04 3.19 57.85 3.19C57.71 3.19 57.71 3.26 57.71 3.47C57.71 3.64 57.71 3.70 57.85 3.70L58.55 3.70C58.81 3.70 58.81 3.72 58.81 3.84C58.81 4.82 58.60 9.94 58.56 10.79C58.52 11.55 58.52 12.18 58.46 12.18L57.89 12.18C57.67 12.18 57.60 12.19 57.60 12.39ZM77.27 8.15C77.27 11.17 79.60 12.80 81.86 12.80C84.64 12.80 86.62 10.89 86.62 8.06C86.62 5.33 84.87 3.11 82.07 3.11C79.46 3.11 77.27 5.10 77.27 8.15ZM78.67 7.77C78.67 5.64 79.95 3.58 81.93 3.58C84.17 3.58 85.25 5.81 85.25 7.94C85.25 10.08 84.14 12.32 81.87 12.32C79.88 12.32 78.67 10.28 78.67 7.77ZM93.88 3.51C93.88 3.75 93.98 3.77 94.15 3.77L94.58 3.77C94.67 3.77 97.45 10.99 97.50 11.07C97.99 12.18 98.08 12.99 98.29 12.99C98.56 12.99 98.62 12.67 98.90 12.26C99.05 12.04 99.13 12.01 99.29 11.66L102.52 4.06C102.63 3.81 102.62 3.77 102.98 3.77C103.21 3.77 103.28 3.75 103.28 3.56C103.28 3.32 103.24 3.26 103.04 3.26C102.90 3.26 102.37 3.30 101.95 3.30C101.53 3.30 100.70 3.26 100.48 3.26C100.28 3.26 100.23 3.29 100.23 3.51C100.23 3.75 100.35 3.77 100.52 3.77L101.51 3.77C101.58 3.77 101.60 3.81 101.60 3.95C101.60 4.63 99.92 8.72 99.19 10.63C99.05 10.99 98.97 11.17 98.92 11.17C98.88 11.17 98.78 10.98 98.64 10.60C98.07 9.10 96.94 6.01 96.42 4.49C96.33 4.27 96.25 3.93 96.25 3.79L96.25 3.77L97.23 3.77C97.45 3.77 97.52 3.75 97.52 3.56C97.52 3.32 97.48 3.26 97.29 3.26C96.96 3.26 95.89 3.30 95.47 3.30C95.05 3.30 94.33 3.26 94.15 3.26C93.97 3.26 93.88 3.28 93.88 3.51ZM110.75 12.39C110.75 12.63 110.80 12.68 110.99 12.68C111.31 12.68 112.07 12.64 112.78 12.64C113.44 12.64 114.24 12.68 114.46 12.68C114.63 12.68 114.66 12.61 114.66 12.40C114.66 12.24 114.63 12.18 114.46 12.18L113.50 12.18C113.40 12.18 113.37 9.55 113.37 7.76L113.37 5.87C113.37 5.14 113.40 3.70 113.50 3.70L114.41 3.70C114.63 3.70 114.66 3.68 114.66 3.49C114.66 3.25 114.63 3.19 114.46 3.19C114.14 3.19 113.47 3.23 112.81 3.23C112 3.23 111.29 3.19 111.06 3.19C110.88 3.19 110.81 3.21 110.81 3.44C110.81 3.68 110.89 3.70 111.06 3.70L111.99 3.70C112.03 3.70 112.10 4.79 112.10 5.71L112.10 7.08C112.10 8.92 112.08 12.18 111.97 12.18L111.05 12.18C110.82 12.18 110.75 12.19 110.75 12.39ZM122.56 12.39C122.56 12.63 122.58 12.68 122.78 12.68C123.10 12.68 124.07 12.64 124.49 12.64C124.91 12.64 129.42 12.68 129.74 12.68C129.86 12.68 130.02 12.66 130.02 12.49C130.02 12.07 130.06 11.23 130.06 10.53C130.06 10.39 129.91 10.39 129.78 10.39C129.67 10.39 129.54 10.39 129.54 10.51C129.53 11.06 129.53 11.41 129.50 11.76C129.47 12.01 129.47 12.04 129.37 12.04C129.22 12.04 126.59 12.08 125.09 12.08C125.02 12.08 124.98 10.11 124.94 8.26C124.94 8.06 124.98 8.09 125.12 8.09L127.40 8.09C128.10 8.09 128.13 8.20 128.13 8.30L128.13 9.00C128.13 9.14 128.31 9.14 128.42 9.14C128.52 9.14 128.65 9.13 128.65 9.02C128.65 8.83 128.62 8.33 128.62 7.83C128.62 7.32 128.65 6.83 128.65 6.71C128.65 6.59 128.51 6.58 128.41 6.58C128.30 6.58 128.13 6.59 128.13 6.72L128.13 7.45C128.13 7.62 127.68 7.63 127.40 7.63L125.06 7.63C124.95 7.63 124.94 7.63 124.94 7.45C124.92 6.75 124.91 6.06 124.91 5.46C124.91 5.12 124.91 3.71 124.99 3.71C126.22 3.71 128.73 3.75 128.73 3.81C128.73 3.99 128.69 4.83 128.69 4.89C128.69 5.04 128.76 5.10 128.94 5.10C129.14 5.10 129.21 5.08 129.21 4.94C129.21 3.85 129.26 3.36 129.26 3.09C129.26 2.91 129.18 2.90 128.98 2.90C128.79 2.90 128.79 2.95 128.76 3.11C128.74 3.25 128.81 3.25 127.90 3.25C127.29 3.25 125.15 3.29 124.38 3.29C123.89 3.29 122.95 3.25 122.85 3.25C122.72 3.25 122.67 3.30 122.67 3.49C122.67 3.72 122.74 3.74 122.91 3.74L123.56 3.74C123.62 3.74 123.69 4.79 123.69 5.71C123.69 5.80 123.75 8.27 123.75 9.83L123.75 11.17C123.75 11.84 123.72 12.18 123.69 12.18L122.84 12.18C122.61 12.18 122.56 12.21 122.56 12.39ZM138.24 5.77C138.24 9.07 143.22 8.20 143.22 10.65C143.22 11.59 142.38 12.31 141.40 12.31C140.57 12.31 138.98 11.83 138.95 11.47L138.87 10.15C138.85 9.97 138.78 9.91 138.60 9.91L138.53 9.91C138.32 9.91 138.32 10.00 138.32 10.12C138.32 10.32 138.43 11.66 138.46 12.17C138.47 12.38 139.73 12.85 141.27 12.85C142.84 12.85 144.45 11.87 144.45 10.11C144.45 6.79 139.48 7.87 139.48 5.32C139.48 4.31 140.27 3.56 141.30 3.56C142.32 3.56 143.42 4.58 143.42 4.89C143.42 5.01 143.37 5.73 143.37 5.78C143.37 5.92 143.42 5.99 143.68 5.99C143.92 5.99 143.93 5.94 143.93 5.75C143.93 5.04 144.02 3.68 144.02 3.53C144.02 3.30 143.98 3.29 143.71 3.29C143.49 3.29 143.47 3.32 143.46 3.53C143.46 3.61 143.44 3.78 143.40 3.78C143.35 3.78 143.26 3.74 143.19 3.68C142.39 3.14 141.78 3.08 141.27 3.08C139.75 3.08 138.24 4.17 138.24 5.77ZM163.06 15.22C163.06 15.51 163.07 15.57 163.30 15.57L163.59 15.57C163.80 15.57 163.80 15.41 163.80 15.22L163.80 2.17C163.80 1.90 163.72 1.89 163.45 1.89L163.35 1.89C163.18 1.89 163.06 1.92 163.06 2.16ZM182.55 8.15C182.55 11.17 184.88 12.80 187.14 12.80C189.92 12.80 191.90 10.89 191.90 8.06C191.90 5.33 190.15 3.11 187.35 3.11C184.74 3.11 182.55 5.10 182.55 8.15ZM183.95 7.77C183.95 5.64 185.23 3.58 187.21 3.58C189.45 3.58 190.53 5.81 190.53 7.94C190.53 10.08 189.42 12.32 187.15 12.32C185.16 12.32 183.95 10.28 183.95 7.77ZM200.00 12.39C200.00 12.63 200.02 12.68 200.21 12.68C200.40 12.68 200.77 12.64 201.39 12.64C202.02 12.64 202.58 12.68 202.90 12.68C203.07 12.68 203.07 12.61 203.07 12.40C203.07 12.24 203.07 12.18 202.90 12.18L201.70 12.18C201.66 12.18 201.64 11.54 201.64 10.79C201.64 9.46 201.66 7.48 201.66 5.99C201.66 5.25 201.66 4.84 201.67 4.28C201.67 4.02 201.74 4.14 201.87 4.28L208.75 12.66C208.84 12.75 208.92 12.89 209.03 12.89C209.15 12.89 209.22 12.77 209.22 12.54C209.22 12.39 209.38 6.65 209.40 4.48C209.40 4.06 209.43 3.70 209.45 3.70L210.08 3.70C210.31 3.70 210.36 3.68 210.36 3.49C210.36 3.25 210.36 3.19 210.17 3.19C209.97 3.19 209.54 3.23 208.98 3.23C208.36 3.23 207.56 3.19 207.47 3.19C207.30 3.19 207.30 3.26 207.30 3.47C207.30 3.64 207.30 3.70 207.47 3.70L208.77 3.70C208.78 3.70 208.78 4.33 208.78 4.44C208.78 5.85 208.81 8.33 208.81 9.70L208.81 10.29C208.81 10.57 208.80 10.65 208.57 10.37L202.89 3.39C202.78 3.25 202.75 3.19 202.58 3.19C202.50 3.19 202.12 3.23 201.81 3.23C201.52 3.23 200.44 3.19 200.24 3.19C200.07 3.19 200.05 3.26 200.05 3.47C200.05 3.64 200.07 3.70 200.24 3.70L201.15 3.70C201.15 4.17 201.11 8.53 201.04 10.79C201.01 11.69 201.03 12.18 200.91 12.18L200.27 12.18C200.05 12.18 200.00 12.19 200.00 12.39ZM218.40 12.39C218.40 12.63 218.43 12.68 218.62 12.68C218.95 12.68 219.91 12.64 220.33 12.64C220.75 12.64 225.26 12.68 225.58 12.68C225.71 12.68 225.86 12.66 225.86 12.49C225.86 12.07 225.90 11.23 225.90 10.53C225.90 10.39 225.75 10.39 225.62 10.39C225.51 10.39 225.39 10.39 225.39 10.51C225.37 11.06 225.37 11.41 225.34 11.76C225.32 12.01 225.32 12.04 225.22 12.04C225.06 12.04 222.43 12.08 220.93 12.08C220.86 12.08 220.82 10.11 220.78 8.26C220.78 8.06 220.82 8.09 220.96 8.09L223.24 8.09C223.94 8.09 223.97 8.20 223.97 8.30L223.97 9.00C223.97 9.14 224.15 9.14 224.27 9.14C224.36 9.14 224.49 9.13 224.49 9.02C224.49 8.83 224.46 8.33 224.46 7.83C224.46 7.32 224.49 6.83 224.49 6.71C224.49 6.59 224.35 6.58 224.25 6.58C224.14 6.58 223.97 6.59 223.97 6.72L223.97 7.45C223.97 7.62 223.52 7.63 223.24 7.63L220.91 7.63C220.79 7.63 220.78 7.63 220.78 7.45C220.77 6.75 220.75 6.06 220.75 5.46C220.75 5.12 220.75 3.71 220.84 3.71C222.07 3.71 224.57 3.75 224.57 3.81C224.57 3.99 224.53 4.83 224.53 4.89C224.53 5.04 224.60 5.10 224.78 5.10C224.98 5.10 225.05 5.08 225.05 4.94C225.05 3.85 225.11 3.36 225.11 3.09C225.11 2.91 225.02 2.90 224.83 2.90C224.63 2.90 224.63 2.95 224.60 3.11C224.59 3.25 224.66 3.25 223.75 3.25C223.13 3.25 220.99 3.29 220.22 3.29C219.73 3.29 218.79 3.25 218.69 3.25C218.57 3.25 218.51 3.30 218.51 3.49C218.51 3.72 218.58 3.74 218.75 3.74L219.41 3.74C219.46 3.74 219.53 4.79 219.53 5.71C219.53 5.80 219.59 8.27 219.59 9.83L219.59 11.17C219.59 11.84 219.56 12.18 219.53 12.18L218.68 12.18C218.46 12.18 218.40 12.21 218.40 12.39ZM243.67 3.51C243.67 3.75 243.71 3.79 243.92 3.79L244.85 3.77C244.90 3.77 244.90 4.47 244.90 5.24L244.90 5.96C244.90 7.70 244.89 12.18 244.78 12.18L244.10 12.18C243.88 12.18 243.81 12.19 243.81 12.39C243.81 12.63 243.82 12.68 244.02 12.68C244.15 12.68 245.13 12.64 245.55 12.64C245.97 12.64 246.83 12.68 247.16 12.68C247.32 12.68 247.35 12.61 247.35 12.40C247.35 12.24 247.32 12.18 247.16 12.18L246.16 12.18C246.12 12.18 246.11 10.60 246.11 9.58L246.11 8.65C246.11 8.57 246.11 8.54 246.20 8.54C246.60 8.54 246.92 8.58 247.42 8.58C249.41 8.58 250.81 7.83 250.81 6.01C250.81 4.09 249.33 3.22 247.41 3.22C247.09 3.22 245.99 3.29 245.57 3.29C245.34 3.29 244.15 3.26 243.92 3.26C243.74 3.26 243.67 3.28 243.67 3.51ZM246.12 8.05L246.12 4.40C246.12 4.05 246.13 3.70 246.18 3.68C246.30 3.67 246.47 3.67 246.61 3.67C248.26 3.67 249.52 4.47 249.52 5.80C249.52 7.57 248.19 8.19 246.61 8.19C246.36 8.19 246.12 8.16 246.12 8.05ZM258.57 12.39C258.57 12.63 258.59 12.68 258.79 12.68C259.11 12.68 260.08 12.64 260.50 12.64C260.92 12.64 265.27 12.68 265.59 12.68C265.86 12.68 265.93 12.66 265.94 12.49C266 12.08 266.24 10.72 266.24 10.60C266.24 10.47 266.08 10.44 265.92 10.43C265.82 10.42 265.73 10.46 265.72 10.56L265.55 11.76C265.51 12.05 265.50 12.03 265.27 12.04C265.12 12.05 262.61 12.12 261.18 12.12C261.14 12.12 261.10 11.38 261.10 10.54L261.10 6.66C261.10 5.40 261.11 3.70 261.21 3.70L262.19 3.70C262.43 3.70 262.46 3.63 262.46 3.44C262.46 3.23 262.44 3.19 262.21 3.19C261.88 3.19 260.95 3.23 260.53 3.23C260.11 3.23 259.17 3.19 258.94 3.19C258.72 3.19 258.66 3.22 258.66 3.44C258.66 3.65 258.71 3.70 258.90 3.70L259.73 3.70C259.77 3.70 259.80 4.23 259.80 4.90L259.80 8.13C259.80 10.07 259.77 12.18 259.69 12.18L258.85 12.18C258.62 12.18 258.57 12.21 258.57 12.39ZM273.71 12.39C273.71 12.63 273.71 12.68 273.91 12.68C274.08 12.68 274.40 12.64 274.97 12.64C275.59 12.64 276.14 12.68 276.29 12.68C276.46 12.68 276.46 12.61 276.46 12.40C276.46 12.24 276.46 12.18 276.29 12.18L275.21 12.18C275.21 12.18 275.20 12.18 275.20 12.17C275.21 11.87 275.98 9.90 276.33 9.02C276.40 8.83 276.42 8.79 276.63 8.79L279.45 8.79C279.59 8.79 279.59 8.81 279.66 9.03C279.93 9.77 280.64 11.89 280.64 12.17C280.64 12.18 280.63 12.18 280.63 12.18L279.86 12.18C279.64 12.18 279.62 12.19 279.62 12.39C279.62 12.63 279.64 12.68 279.80 12.68C280.13 12.68 280.99 12.64 281.41 12.64C281.83 12.64 282.51 12.68 282.72 12.68C282.86 12.68 282.87 12.61 282.87 12.40C282.87 12.24 282.86 12.18 282.72 12.18L282.23 12.18C282.13 12.18 281.11 9.34 280.55 7.78L278.87 3.07C278.85 3.00 278.78 2.94 278.70 2.94C278.57 2.94 278.47 3.16 278.39 3.35C278.24 3.71 278.00 3.84 277.89 4.13L276.40 7.57C276.22 8.01 274.51 12.18 274.39 12.18L273.97 12.18C273.74 12.18 273.71 12.19 273.71 12.39ZM276.61 8.33C276.61 8.30 276.64 8.23 276.68 8.13L278.05 4.77C278.10 4.66 278.12 4.61 278.15 4.61C278.17 4.61 278.18 4.63 278.22 4.77L279.38 8.18C279.41 8.25 279.43 8.29 279.43 8.32C279.43 8.36 279.40 8.37 279.30 8.37L276.79 8.37C276.61 8.37 276.61 8.34 276.61 8.33ZM290.42 7.91C290.42 11.31 292.78 12.87 295.37 12.87C297.15 12.87 298.93 11.90 298.97 11.59C299.14 10.29 299.19 9.70 299.19 9.66C299.19 9.56 299.15 9.52 298.98 9.51C298.93 9.51 298.87 9.49 298.83 9.49C298.72 9.49 298.66 9.53 298.63 9.70L298.45 11.33C298.44 11.45 297.33 12.24 295.76 12.24C293.64 12.24 291.93 10.29 291.93 7.94C291.93 5.42 293.36 3.54 295.36 3.54C297.21 3.54 298.55 5.01 298.55 5.17C298.55 5.29 298.49 6.40 298.49 6.45C298.49 6.59 298.54 6.64 298.80 6.64C299.00 6.64 299.07 6.62 299.07 6.44C299.07 5.73 299.12 3.92 299.12 3.67C299.12 3.47 299.01 3.44 298.80 3.44C298.58 3.44 298.55 3.50 298.55 3.67L298.55 4.05C298.55 4.16 298.51 4.16 298.38 4.06C298.10 3.86 297.12 3.04 295.46 3.04C292.61 3.04 290.42 4.96 290.42 7.91ZM307.58 12.39C307.58 12.63 307.61 12.68 307.80 12.68C308.13 12.68 309.09 12.64 309.51 12.64C309.93 12.64 314.44 12.68 314.76 12.68C314.89 12.68 315.04 12.66 315.04 12.49C315.04 12.07 315.08 11.23 315.08 10.53C315.08 10.39 314.93 10.39 314.80 10.39C314.69 10.39 314.57 10.39 314.57 10.51C314.55 11.06 314.55 11.41 314.52 11.76C314.50 12.01 314.50 12.04 314.40 12.04C314.24 12.04 311.61 12.08 310.11 12.08C310.04 12.08 310.00 10.11 309.96 8.26C309.96 8.06 310.00 8.09 310.14 8.09L312.42 8.09C313.12 8.09 313.15 8.20 313.15 8.30L313.15 9.00C313.15 9.14 313.33 9.14 313.45 9.14C313.54 9.14 313.67 9.13 313.67 9.02C313.67 8.83 313.64 8.33 313.64 7.83C313.64 7.32 313.67 6.83 313.67 6.71C313.67 6.59 313.53 6.58 313.43 6.58C313.32 6.58 313.15 6.59 313.15 6.72L313.15 7.45C313.15 7.62 312.70 7.63 312.42 7.63L310.09 7.63C309.97 7.63 309.96 7.63 309.96 7.45C309.95 6.75 309.93 6.06 309.93 5.46C309.93 5.12 309.93 3.71 310.02 3.71C311.25 3.71 313.75 3.75 313.75 3.81C313.75 3.99 313.71 4.83 313.71 4.89C313.71 5.04 313.78 5.10 313.96 5.10C314.16 5.10 314.23 5.08 314.23 4.94C314.23 3.85 314.29 3.36 314.29 3.09C314.29 2.91 314.20 2.90 314.01 2.90C313.81 2.90 313.81 2.95 313.78 3.11C313.77 3.25 313.84 3.25 312.93 3.25C312.31 3.25 310.17 3.29 309.40 3.29C308.91 3.29 307.97 3.25 307.87 3.25C307.75 3.25 307.69 3.30 307.69 3.49C307.69 3.72 307.76 3.74 307.93 3.74L308.59 3.74C308.64 3.74 308.71 4.79 308.71 5.71C308.71 5.80 308.77 8.27 308.77 9.83L308.77 11.17C308.77 11.84 308.74 12.18 308.71 12.18L307.86 12.18C307.64 12.18 307.58 12.21 307.58 12.39Z"></path></g></svg>